<mxfile host="app.diagrams.net" agent="Mozilla/5.0 (Windows NT 10.0; Win64; x64) AppleWebKit/537.36 (KHTML, like Gecko) Chrome/128.0.0.0 Safari/537.36" version="24.7.10">
  <diagram name="페이지-1" id="bTiiNHjyBIzRynycfl4v">
    <mxGraphModel dx="1004" dy="587" grid="1" gridSize="10" guides="1" tooltips="1" connect="1" arrows="1" fold="1" page="1" pageScale="1" pageWidth="827" pageHeight="1169" math="0" shadow="0">
      <root>
        <mxCell id="0" />
        <mxCell id="1" parent="0" />
        <mxCell id="g9z6lTZiuhYvATAemZ8_-16" style="edgeStyle=orthogonalEdgeStyle;rounded=0;orthogonalLoop=1;jettySize=auto;html=1;exitX=0.5;exitY=1;exitDx=0;exitDy=0;entryX=0.5;entryY=0;entryDx=0;entryDy=0;" edge="1" parent="1" target="g9z6lTZiuhYvATAemZ8_-4">
          <mxGeometry relative="1" as="geometry">
            <mxPoint x="410" y="350" as="sourcePoint" />
          </mxGeometry>
        </mxCell>
        <mxCell id="g9z6lTZiuhYvATAemZ8_-3" value="소켓 생성" style="rounded=1;whiteSpace=wrap;html=1;" vertex="1" parent="1">
          <mxGeometry x="350" y="210" width="120" height="60" as="geometry" />
        </mxCell>
        <mxCell id="g9z6lTZiuhYvATAemZ8_-17" style="edgeStyle=orthogonalEdgeStyle;rounded=0;orthogonalLoop=1;jettySize=auto;html=1;exitX=0.5;exitY=1;exitDx=0;exitDy=0;entryX=0.5;entryY=0;entryDx=0;entryDy=0;" edge="1" parent="1" source="g9z6lTZiuhYvATAemZ8_-4" target="g9z6lTZiuhYvATAemZ8_-5">
          <mxGeometry relative="1" as="geometry" />
        </mxCell>
        <mxCell id="g9z6lTZiuhYvATAemZ8_-4" value="바인드" style="rounded=1;whiteSpace=wrap;html=1;" vertex="1" parent="1">
          <mxGeometry x="350" y="360" width="120" height="60" as="geometry" />
        </mxCell>
        <mxCell id="g9z6lTZiuhYvATAemZ8_-18" style="edgeStyle=orthogonalEdgeStyle;rounded=0;orthogonalLoop=1;jettySize=auto;html=1;exitX=0.5;exitY=1;exitDx=0;exitDy=0;entryX=0.5;entryY=0;entryDx=0;entryDy=0;" edge="1" parent="1" source="g9z6lTZiuhYvATAemZ8_-5" target="g9z6lTZiuhYvATAemZ8_-6">
          <mxGeometry relative="1" as="geometry" />
        </mxCell>
        <mxCell id="g9z6lTZiuhYvATAemZ8_-5" value="리슨" style="rounded=1;whiteSpace=wrap;html=1;" vertex="1" parent="1">
          <mxGeometry x="350" y="510" width="120" height="60" as="geometry" />
        </mxCell>
        <mxCell id="g9z6lTZiuhYvATAemZ8_-20" style="edgeStyle=orthogonalEdgeStyle;rounded=0;orthogonalLoop=1;jettySize=auto;html=1;exitX=0.5;exitY=1;exitDx=0;exitDy=0;entryX=0.5;entryY=0;entryDx=0;entryDy=0;" edge="1" parent="1" source="g9z6lTZiuhYvATAemZ8_-6" target="g9z6lTZiuhYvATAemZ8_-9">
          <mxGeometry relative="1" as="geometry" />
        </mxCell>
        <mxCell id="g9z6lTZiuhYvATAemZ8_-6" value="허용" style="rounded=1;whiteSpace=wrap;html=1;" vertex="1" parent="1">
          <mxGeometry x="350" y="660" width="120" height="60" as="geometry" />
        </mxCell>
        <mxCell id="g9z6lTZiuhYvATAemZ8_-26" style="edgeStyle=orthogonalEdgeStyle;rounded=0;orthogonalLoop=1;jettySize=auto;html=1;exitX=0.5;exitY=1;exitDx=0;exitDy=0;entryX=0.5;entryY=0;entryDx=0;entryDy=0;" edge="1" parent="1" source="g9z6lTZiuhYvATAemZ8_-8" target="g9z6lTZiuhYvATAemZ8_-10">
          <mxGeometry relative="1" as="geometry" />
        </mxCell>
        <mxCell id="g9z6lTZiuhYvATAemZ8_-8" value="연결" style="rounded=1;whiteSpace=wrap;html=1;" vertex="1" parent="1">
          <mxGeometry x="680" y="585" width="120" height="60" as="geometry" />
        </mxCell>
        <mxCell id="g9z6lTZiuhYvATAemZ8_-38" style="edgeStyle=orthogonalEdgeStyle;rounded=0;orthogonalLoop=1;jettySize=auto;html=1;exitX=0.5;exitY=1;exitDx=0;exitDy=0;entryX=0.5;entryY=0;entryDx=0;entryDy=0;" edge="1" parent="1" source="g9z6lTZiuhYvATAemZ8_-9" target="g9z6lTZiuhYvATAemZ8_-11">
          <mxGeometry relative="1" as="geometry" />
        </mxCell>
        <mxCell id="g9z6lTZiuhYvATAemZ8_-40" style="edgeStyle=orthogonalEdgeStyle;rounded=0;orthogonalLoop=1;jettySize=auto;html=1;exitX=0;exitY=0.5;exitDx=0;exitDy=0;entryX=1;entryY=0.5;entryDx=0;entryDy=0;" edge="1" parent="1" source="g9z6lTZiuhYvATAemZ8_-9" target="g9z6lTZiuhYvATAemZ8_-34">
          <mxGeometry relative="1" as="geometry" />
        </mxCell>
        <mxCell id="g9z6lTZiuhYvATAemZ8_-9" value="수신" style="rounded=1;whiteSpace=wrap;html=1;" vertex="1" parent="1">
          <mxGeometry x="350" y="810" width="120" height="60" as="geometry" />
        </mxCell>
        <mxCell id="g9z6lTZiuhYvATAemZ8_-29" style="edgeStyle=orthogonalEdgeStyle;rounded=0;orthogonalLoop=1;jettySize=auto;html=1;exitX=0;exitY=0.5;exitDx=0;exitDy=0;entryX=1;entryY=0.5;entryDx=0;entryDy=0;" edge="1" parent="1" source="g9z6lTZiuhYvATAemZ8_-10" target="g9z6lTZiuhYvATAemZ8_-9">
          <mxGeometry relative="1" as="geometry" />
        </mxCell>
        <mxCell id="g9z6lTZiuhYvATAemZ8_-10" value="전송" style="rounded=1;whiteSpace=wrap;html=1;" vertex="1" parent="1">
          <mxGeometry x="680" y="810" width="120" height="60" as="geometry" />
        </mxCell>
        <mxCell id="g9z6lTZiuhYvATAemZ8_-41" style="edgeStyle=orthogonalEdgeStyle;rounded=0;orthogonalLoop=1;jettySize=auto;html=1;exitX=1;exitY=0.5;exitDx=0;exitDy=0;entryX=0;entryY=0.5;entryDx=0;entryDy=0;" edge="1" parent="1" source="g9z6lTZiuhYvATAemZ8_-11" target="g9z6lTZiuhYvATAemZ8_-12">
          <mxGeometry relative="1" as="geometry" />
        </mxCell>
        <mxCell id="g9z6lTZiuhYvATAemZ8_-44" style="edgeStyle=orthogonalEdgeStyle;rounded=0;orthogonalLoop=1;jettySize=auto;html=1;exitX=0.5;exitY=1;exitDx=0;exitDy=0;entryX=0.5;entryY=0;entryDx=0;entryDy=0;" edge="1" parent="1" source="g9z6lTZiuhYvATAemZ8_-11" target="g9z6lTZiuhYvATAemZ8_-15">
          <mxGeometry relative="1" as="geometry" />
        </mxCell>
        <mxCell id="g9z6lTZiuhYvATAemZ8_-11" value="전송" style="rounded=1;whiteSpace=wrap;html=1;" vertex="1" parent="1">
          <mxGeometry x="350" y="960" width="120" height="60" as="geometry" />
        </mxCell>
        <mxCell id="g9z6lTZiuhYvATAemZ8_-42" style="edgeStyle=orthogonalEdgeStyle;rounded=0;orthogonalLoop=1;jettySize=auto;html=1;exitX=0.5;exitY=0;exitDx=0;exitDy=0;entryX=0.5;entryY=1;entryDx=0;entryDy=0;" edge="1" parent="1" source="g9z6lTZiuhYvATAemZ8_-12" target="g9z6lTZiuhYvATAemZ8_-10">
          <mxGeometry relative="1" as="geometry" />
        </mxCell>
        <mxCell id="g9z6lTZiuhYvATAemZ8_-43" style="edgeStyle=orthogonalEdgeStyle;rounded=0;orthogonalLoop=1;jettySize=auto;html=1;exitX=0.5;exitY=1;exitDx=0;exitDy=0;entryX=0.5;entryY=0;entryDx=0;entryDy=0;" edge="1" parent="1" source="g9z6lTZiuhYvATAemZ8_-12" target="g9z6lTZiuhYvATAemZ8_-14">
          <mxGeometry relative="1" as="geometry" />
        </mxCell>
        <mxCell id="g9z6lTZiuhYvATAemZ8_-12" value="수신" style="rounded=1;whiteSpace=wrap;html=1;" vertex="1" parent="1">
          <mxGeometry x="680" y="960" width="120" height="60" as="geometry" />
        </mxCell>
        <mxCell id="g9z6lTZiuhYvATAemZ8_-45" style="edgeStyle=orthogonalEdgeStyle;rounded=0;orthogonalLoop=1;jettySize=auto;html=1;exitX=0;exitY=0.5;exitDx=0;exitDy=0;" edge="1" parent="1" source="g9z6lTZiuhYvATAemZ8_-14">
          <mxGeometry relative="1" as="geometry">
            <mxPoint x="410" y="1139.3157894736844" as="targetPoint" />
          </mxGeometry>
        </mxCell>
        <mxCell id="g9z6lTZiuhYvATAemZ8_-14" value="소켓 닫기" style="rounded=1;whiteSpace=wrap;html=1;" vertex="1" parent="1">
          <mxGeometry x="680" y="1109" width="120" height="60" as="geometry" />
        </mxCell>
        <mxCell id="g9z6lTZiuhYvATAemZ8_-15" value="소켓 닫기" style="rounded=1;whiteSpace=wrap;html=1;" vertex="1" parent="1">
          <mxGeometry x="350" y="1260" width="120" height="60" as="geometry" />
        </mxCell>
        <mxCell id="g9z6lTZiuhYvATAemZ8_-22" value="" style="edgeStyle=orthogonalEdgeStyle;rounded=0;orthogonalLoop=1;jettySize=auto;html=1;exitX=0.5;exitY=1;exitDx=0;exitDy=0;entryX=0.5;entryY=0;entryDx=0;entryDy=0;" edge="1" parent="1" source="g9z6lTZiuhYvATAemZ8_-3" target="g9z6lTZiuhYvATAemZ8_-4">
          <mxGeometry relative="1" as="geometry">
            <mxPoint x="410" y="270" as="sourcePoint" />
            <mxPoint x="410" y="290" as="targetPoint" />
          </mxGeometry>
        </mxCell>
        <mxCell id="g9z6lTZiuhYvATAemZ8_-24" style="edgeStyle=orthogonalEdgeStyle;rounded=0;orthogonalLoop=1;jettySize=auto;html=1;exitX=0;exitY=0.5;exitDx=0;exitDy=0;" edge="1" parent="1" source="g9z6lTZiuhYvATAemZ8_-23">
          <mxGeometry relative="1" as="geometry">
            <mxPoint x="410" y="320" as="targetPoint" />
          </mxGeometry>
        </mxCell>
        <mxCell id="g9z6lTZiuhYvATAemZ8_-25" style="edgeStyle=orthogonalEdgeStyle;rounded=0;orthogonalLoop=1;jettySize=auto;html=1;exitX=0.5;exitY=1;exitDx=0;exitDy=0;entryX=0.5;entryY=0;entryDx=0;entryDy=0;" edge="1" parent="1" source="g9z6lTZiuhYvATAemZ8_-23" target="g9z6lTZiuhYvATAemZ8_-8">
          <mxGeometry relative="1" as="geometry" />
        </mxCell>
        <mxCell id="g9z6lTZiuhYvATAemZ8_-23" value="소켓 생성" style="rounded=1;whiteSpace=wrap;html=1;" vertex="1" parent="1">
          <mxGeometry x="680" y="290" width="120" height="60" as="geometry" />
        </mxCell>
        <mxCell id="g9z6lTZiuhYvATAemZ8_-28" value="" style="endArrow=classic;startArrow=classic;html=1;rounded=0;entryX=0;entryY=0.5;entryDx=0;entryDy=0;" edge="1" parent="1" target="g9z6lTZiuhYvATAemZ8_-8">
          <mxGeometry width="50" height="50" relative="1" as="geometry">
            <mxPoint x="410" y="615" as="sourcePoint" />
            <mxPoint x="440" y="670" as="targetPoint" />
          </mxGeometry>
        </mxCell>
        <mxCell id="g9z6lTZiuhYvATAemZ8_-31" value="서버" style="text;html=1;align=center;verticalAlign=middle;resizable=0;points=[];autosize=1;strokeColor=none;fillColor=none;" vertex="1" parent="1">
          <mxGeometry x="389" y="118" width="50" height="30" as="geometry" />
        </mxCell>
        <mxCell id="g9z6lTZiuhYvATAemZ8_-32" value="클라이언트" style="text;html=1;align=center;verticalAlign=middle;resizable=0;points=[];autosize=1;strokeColor=none;fillColor=none;" vertex="1" parent="1">
          <mxGeometry x="700" y="118" width="80" height="30" as="geometry" />
        </mxCell>
        <mxCell id="g9z6lTZiuhYvATAemZ8_-33" value="DB" style="text;html=1;align=center;verticalAlign=middle;resizable=0;points=[];autosize=1;strokeColor=none;fillColor=none;" vertex="1" parent="1">
          <mxGeometry x="90" y="118" width="40" height="30" as="geometry" />
        </mxCell>
        <mxCell id="g9z6lTZiuhYvATAemZ8_-37" style="edgeStyle=orthogonalEdgeStyle;rounded=0;orthogonalLoop=1;jettySize=auto;html=1;exitX=0.5;exitY=1;exitDx=0;exitDy=0;entryX=0.5;entryY=0;entryDx=0;entryDy=0;" edge="1" parent="1" source="g9z6lTZiuhYvATAemZ8_-34" target="g9z6lTZiuhYvATAemZ8_-36">
          <mxGeometry relative="1" as="geometry" />
        </mxCell>
        <mxCell id="g9z6lTZiuhYvATAemZ8_-34" value="수신" style="rounded=1;whiteSpace=wrap;html=1;" vertex="1" parent="1">
          <mxGeometry x="50" y="810" width="120" height="60" as="geometry" />
        </mxCell>
        <mxCell id="g9z6lTZiuhYvATAemZ8_-36" value="저장" style="rounded=1;whiteSpace=wrap;html=1;" vertex="1" parent="1">
          <mxGeometry x="50" y="959" width="120" height="60" as="geometry" />
        </mxCell>
      </root>
    </mxGraphModel>
  </diagram>
</mxfile>
